<?xml version="1.0" encoding="UTF-8" standalone="no"?>
<svg
   xmlns:dc="http://purl.org/dc/elements/1.1/"
   xmlns:cc="http://creativecommons.org/ns#"
   xmlns:rdf="http://www.w3.org/1999/02/22-rdf-syntax-ns#"
   xmlns:svg="http://www.w3.org/2000/svg"
   xmlns="http://www.w3.org/2000/svg"
   xmlns:sodipodi="http://sodipodi.sourceforge.net/DTD/sodipodi-0.dtd"
   xmlns:inkscape="http://www.inkscape.org/namespaces/inkscape"
   version="1.0"
   id="Layer_1"
   x="0px"
   y="0px"
   viewBox="0 0 320 100"
   xml:space="preserve"
   sodipodi:docname="studio-logo.svg"
   inkscape:version="1.0.1 (3bc2e813f5, 2020-09-07)"
   width="320"
   height="100"><metadata
   id="metadata23"><rdf:RDF><cc:Work
       rdf:about=""><dc:format>image/svg+xml</dc:format><dc:type
         rdf:resource="http://purl.org/dc/dcmitype/StillImage" /><dc:title></dc:title></cc:Work></rdf:RDF></metadata><defs
   id="defs21" /><sodipodi:namedview
   pagecolor="#ffffff"
   bordercolor="#666666"
   borderopacity="1"
   objecttolerance="10"
   gridtolerance="10"
   guidetolerance="10"
   inkscape:pageopacity="0"
   inkscape:pageshadow="2"
   inkscape:window-width="1920"
   inkscape:window-height="1051"
   id="namedview19"
   showgrid="false"
   inkscape:zoom="1.7270512"
   inkscape:cx="307.75"
   inkscape:cy="168.7"
   inkscape:window-x="0"
   inkscape:window-y="0"
   inkscape:window-maximized="1"
   inkscape:current-layer="g16" />
<style
   type="text/css"
   id="style2">
	.st0{fill:#313131;}
	.st1{fill:#35C6F4;}
</style>
<g
   id="g16"
   transform="translate(-152.4,-119.3)">
	<g
   id="g8"
   transform="matrix(1.0034484,0,0,0.98231827,-0.52553084,2.1094303)">
		<g
   id="g6">
			<path
   class="st0"
   d="m 418.4,119.3 h -266 c 0,1.1 0,4.4 0,9.7 v 82.4 c 0,5.4 0,8.4 0,9.7 h 309.2 c 5.4,0 9.7,-4.4 9.7,-9.7 v -39.1 c 0.1,-29.2 -23.6,-53 -52.9,-53 z"
   id="path4" />
		</g>
	</g>
	<g
   id="g14"
   transform="translate(2)">
		<path
   class="st1"
   d="m 292.6,194.9 c 1.3,3.1 3.2,5.8 5.4,8.2 -4.5,3.9 -10.3,6.2 -16.9,6.2 -15.5,0 -26.7,-12.3 -26.7,-29.3 v -21.1 h -24.1 v 30.2 c 0,9.5 0.2,10.7 6.1,10.7 2.7,0 4.2,-0.3 8.6,-2.3 l 2.7,-1.2 v 9.7 l -1.1,0.5 c -1.1,0.5 -2.5,1 -4.7,1.7 -2.3,0.6 -4.7,1 -6.8,1 -7.2,0 -14.4,-4.2 -14.4,-13.5 v -37 h -30.1 c -5.6,0 -9.7,2.8 -9.7,6.8 0,4.4 4.1,6.2 10.9,8.7 7.7,2.9 17.2,6.5 17.2,18.1 0,9.4 -8.6,16.8 -19.6,16.8 -5.9,0 -11.4,-1.7 -17.2,-5.2 l -0.9,-0.6 v -9.8 l 2.8,1.4 c 6.7,3.4 11.2,4.7 16.1,4.7 5.6,0 9.5,-3.1 9.5,-7.5 0,-4.4 -4.3,-6.4 -11.3,-9.1 -7.5,-3 -16.8,-6.6 -16.8,-17.2 0,-9 8.1,-15.6 19.4,-15.6 h 73 v 28.4 c 0,14.5 8.6,21 17.1,21 4.1,0.2 8.3,-1.4 11.5,-4.7 z m 142.8,-15.5 c 0,17.1 -12.6,29.9 -29.3,29.9 -16.8,0 -29.4,-12.9 -29.4,-29.9 0,-17.1 12.7,-30.1 29.4,-30.1 16.7,0 29.3,12.9 29.3,30.1 z m -10,0 c 0,-11.7 -8.3,-20.6 -19.4,-20.6 -11.3,0 -19.5,8.7 -19.5,20.6 0,11.9 8.2,20.5 19.5,20.5 11.3,-0.1 19.4,-8.7 19.4,-20.5 z m -66.9,28.8 h 9.6 v -57.8 h -9.6 z m 0,-61.9 h 9.6 v -11 h -9.6 z m -19.6,-10.9 h 9.6 v 65 l -0.7,0.6 c -5.1,4.3 -11.5,8.3 -23,8.3 -16.4,0 -29.2,-13.2 -29.2,-30.1 0,-17.1 12.6,-29.9 29.2,-29.9 5,0 8.7,0.8 14.1,3.2 z m 0,27.6 c -5.1,-3.1 -8.8,-4.2 -13.9,-4.2 -11.5,0 -19.5,8.3 -19.5,20.1 0,12.1 8.7,21 20.7,21 4.8,0 7.9,-1 12.6,-4.1 V 163 Z"
   id="path10" />
		<path
   class="st1"
   d="m 456.9,179.8 c 0,0.3 -0.1,0.7 -0.1,1 l -8.7,-0.6 c 0,-0.3 0.1,-0.7 0.1,-1 1.3,-18.7 -15.7,-37.8 -34.4,-39.2 l 0.6,-8.7 c 23.6,1.7 44.2,25 42.5,48.5 z"
   id="path12" />
	</g>
</g>
</svg>
