<?xml version="1.0" encoding="utf-8"?>
<!-- Generator: Adobe Illustrator 25.2.3, SVG Export Plug-In . SVG Version: 6.00 Build 0)  -->
<svg version="1.1" id="Camada_1" xmlns="http://www.w3.org/2000/svg" xmlns:xlink="http://www.w3.org/1999/xlink" x="0px" y="0px"
	 viewBox="0 0 300 300" style="enable-background:new 0 0 300 300;" xml:space="preserve">
<style type="text/css">
	.st0{fill:#F9C133;}
	.st1{fill:url(#SVGID_1_);}
	.st2{fill:url(#SVGID_2_);}
</style>
<g>
	<g>
		<g>
			<path class="st0" d="M169.1,94.1L56.9,205.9h74L243.1,94.1H169.1z"/>
		</g>
		<linearGradient id="SVGID_1_" gradientUnits="userSpaceOnUse" x1="59.0134" y1="48.9046" x2="134.5685" y2="129.0012">
			<stop  offset="6.145251e-02" style="stop-color:#37C4DB"/>
			<stop  offset="0.1893" style="stop-color:#3BBED9"/>
			<stop  offset="0.3641" style="stop-color:#47ACD3"/>
			<stop  offset="0.5661" style="stop-color:#5B8FCA"/>
			<stop  offset="0.7865" style="stop-color:#7668BE"/>
			<stop  offset="1" style="stop-color:#953AAF"/>
		</linearGradient>
		<path class="st1" d="M56.9,205.9C14.3,163,14.3,94.1,57.2,51.2c41.9-41.9,109.7-42.5,152.4-2c1.1,1.1,1.1,2.9,0,4l-40.5,40.9
			L56.9,205.9z"/>
		<linearGradient id="SVGID_2_" gradientUnits="userSpaceOnUse" x1="163.3365" y1="168.7973" x2="239.0478" y2="249.0595">
			<stop  offset="0" style="stop-color:#FF036A"/>
			<stop  offset="0.1173" style="stop-color:#FF155C"/>
			<stop  offset="0.532" style="stop-color:#FF5030"/>
			<stop  offset="0.8381" style="stop-color:#FF7514"/>
			<stop  offset="1" style="stop-color:#FF830A"/>
		</linearGradient>
		<path class="st2" d="M243.1,94.1c42.5,42.9,42.5,112.2,0,154.8c-42,41.7-109.5,42.5-152.2,2.5c-1.4-1.3-1.4-3.6-0.1-5l40-40.4
			L243.1,94.1z"/>
	</g>
</g>
</svg>
