<?xml version="1.0" encoding="utf-8"?>
<!-- Generator: Adobe Illustrator 25.2.3, SVG Export Plug-In . SVG Version: 6.00 Build 0)  -->
<svg version="1.1" xmlns="http://www.w3.org/2000/svg" xmlns:xlink="http://www.w3.org/1999/xlink" x="0px" y="0px"
	 viewBox="0 0 520 140" style="enable-background:new 0 0 520 140;" xml:space="preserve">
<style type="text/css">
	.st0{display:none;}
	.st1{display:inline;fill:none;stroke:#1C2021;stroke-width:11.3964;stroke-linejoin:round;stroke-miterlimit:10;}
	.st2{display:inline;fill:#1C2021;}
	.st3{display:inline;}
	.st4{display:inline;fill:#F39200;}
	
		.st5{display:inline;fill:none;stroke:#1D1D1B;stroke-width:3.3876;stroke-linecap:round;stroke-linejoin:round;stroke-miterlimit:10;}
	.st6{fill:#F500F0;}
	
		.st7{display:none;fill:none;stroke:#1D1D1B;stroke-width:3.3876;stroke-linecap:round;stroke-linejoin:round;stroke-miterlimit:10;}
	.st8{fill:#FFFFFF;}
	.st9{fill:#F9C133;}
	.st10{fill:url(#SVGID_1_);}
	.st11{fill:url(#SVGID_2_);}
</style>
<g id="Camada_2" class="st0">
	<path class="st1" d="M3185.2,4478.3h-248.3c-15.6,0-28.3-12.8-28.3-28.3v-248.3c0-15.6,12.8-28.3,28.3-28.3h248.3
		c15.6,0,28.3,12.8,28.3,28.3V4450C3213.5,4465.6,3200.8,4478.3,3185.2,4478.3z"/>
	
		<image style="display:inline;overflow:visible;" width="390" height="399" xlink:href="studio-estudo.jpg"  transform="matrix(1 0 0 1 2863.0059 4126.8179)">
	</image>
</g>
<g id="esboço">
</g>
<g id="estudo1">
	<g class="st0">
		<path class="st2" d="M3720.7,5886.8c-29.8,0-57.1-18.6-72.2-48.9c-1.2-2.3-0.2-5.2,2.2-6.3l9.6-4.3c2.2-1,4.8-0.1,5.9,2.1
			c11.8,23.3,32.4,37.6,54.4,37.6c26.1,0,43-19.1,45.7-37.1c3.4-22.3-12.5-41.1-42.5-50.3c-48.4-14.9-47.7-46.1-46.3-55.3
			c3.4-22.7,24.8-41.2,47.7-41.2c20.2,0,33.5,7.3,39.9,11.8c2.3,1.7,2.6,5,0.6,7l-3.4,3.4l-4,4.1c-1.5,1.6-3.9,1.9-5.8,0.7
			c-4.3-2.8-13.3-7.3-27.3-7.3c-13.1,0-26.3,11.4-28.2,24.4c-2.1,14.3,9.8,26.5,32.7,33.6c47.2,14.5,59.9,46.7,56.1,72
			C3781.2,5863.7,3753.2,5886.8,3720.7,5886.8z"/>
	</g>
</g>
<g id="estudo_2" class="st0">
	<g class="st3">
		<path d="M-1521.7,437.8L-1521.7,437.8c0.7-1.2,2.3-1.5,3.3-0.6c5,4.2,12.7,7.1,20.7,7.1c13.7,0,19.8-6.2,19.8-13.9
			c0-21.3-42.9-8.5-42.9-34.7c0-10.1,7.5-18.9,24.3-18.9c6.8,0,13.9,2,19.1,5.3c0.9,0.6,1.3,1.8,0.8,2.8l0,0.1c-0.5,1.2-2,1.7-3.2,1
			c-5.2-3.1-11.3-4.6-16.7-4.6c-13.3,0-19.3,6.4-19.3,14.2c0,21.3,42.9,8.7,42.9,34.5c0,10.1-7.8,18.8-24.7,18.8
			c-9.4,0-18.5-3.4-23.8-8.4C-1522.1,439.8-1522.2,438.7-1521.7,437.8z"/>
		<path d="M-1439.6,381.9h-22.4c-1.3,0-2.3-1-2.3-2.3v0c0-1.3,1-2.3,2.3-2.3h49.8c1.3,0,2.3,1,2.3,2.3v0c0,1.3-1,2.3-2.3,2.3h-22.4
			V446c0,1.3-1,2.3-2.3,2.3h-0.3c-1.3,0-2.3-1-2.3-2.3V381.9z"/>
		<path d="M-1399.3,418.2v-38.6c0-1.3,1-2.3,2.3-2.3h0.3c1.3,0,2.3,1,2.3,2.3V418c0,17.8,12.2,26.1,26.5,26.1
			c14.3,0,26.5-8.3,26.5-26.1v-38.4c0-1.3,1-2.3,2.3-2.3h0.3c1.3,0,2.3,1,2.3,2.3v38.6c0,20.3-14.5,30.7-31.6,30.7
			C-1384.9,448.9-1399.3,438.5-1399.3,418.2z"/>
		<path d="M-1295.9,377.3h-22.5c-1.3,0-2.3,1-2.3,2.3l0,0c0,1.3,1,2.3,2.3,2.3h22.1c19.4,0,31.9,12.8,31.9,30.9
			c0,18.1-12.5,30.9-31.9,30.9h-22.1c-1.3,0-2.3,1-2.3,2.3v0c0,1.3,1,2.3,2.3,2.3h22.5c21.8,0,36.5-14.8,36.5-35.5
			C-1259.3,392.1-1274.1,377.3-1295.9,377.3z"/>
		<path d="M-1243,377.3h0.3c1.3,0,2.3,1,2.3,2.3V446c0,1.3-1,2.3-2.3,2.3h-0.3c-1.3,0-2.3-1-2.3-2.3v-66.4
			C-1245.4,378.3-1244.3,377.3-1243,377.3z"/>
		<path d="M-1225.5,412.8c0-20.6,15.2-36.1,35.7-36.1c20.4,0,35.7,15.3,35.7,36.1c0,20.7-15.3,36.1-35.7,36.1
			C-1210.3,448.9-1225.5,433.4-1225.5,412.8z M-1159.1,412.8c0-18-13.2-31.3-30.6-31.3c-17.6,0-30.7,13.3-30.7,31.3
			c0,18,13.2,31.3,30.7,31.3C-1172.3,444.1-1159.1,430.8-1159.1,412.8z"/>
	</g>
	<path class="st4" d="M-1525.7,557L-1525.7,557c0.7-1.2,2.3-1.5,3.3-0.6c5,4.2,12.7,7.1,20.7,7.1c13.7,0,19.8-6.2,19.8-13.9
		c0-21.3-42.9-8.5-42.9-34.7c0-10.1,7.5-18.9,24.3-18.9c6.8,0,13.9,2,19.1,5.3c0.9,0.6,1.3,1.8,0.8,2.8l0,0.1c-0.5,1.2-2,1.7-3.2,1
		c-5.2-3.1-11.3-4.6-16.7-4.6c-13.3,0-19.3,6.4-19.3,14.2c0,21.3,42.9,8.7,42.9,34.5c0,10.1-7.8,18.8-24.7,18.8
		c-9.4,0-18.5-3.4-23.8-8.4C-1526.1,559-1526.2,557.9-1525.7,557z"/>
	<path class="st5" d="M-1600.3,659.4c4,10.7,16.4,13.5,26.3,13.4c8.8-0.1,20.2-3.7,20.8-15.1c0.6-10.6-5-15-22.8-18.9
		c-14.3-3.1-19.4-7.7-19.7-17.4c-0.2-9,9.7-15.9,18.5-16c9.9-0.1,22.3,2.9,28.8,11.3"/>
</g>
<g id="Camada_6" class="st0">
	
		<text transform="matrix(1 0 0 1 -1532.6049 457.9186)" style="display:inline;fill:#FFED00; font-family:'Montserrat-Light'; font-size:98.6443px;">S</text>
</g>
<g id="ESTUDO_3">
	<path class="st6" d="M467.4,3745.9c-0.9-0.3-1.8-0.6-2.7-0.9c1.5,0.6,3,1.2,4.3,1.8C468.5,3746.4,468,3746.1,467.4,3745.9z"/>
	<path class="st6" d="M1452.4,3759.9c-0.9-0.3-1.8-0.6-2.7-0.9c1.5,0.6,3,1.2,4.3,1.8C1453.5,3760.4,1453,3760.1,1452.4,3759.9z"/>
	<path class="st7" d="M-1523.5,448.1c6,5.2,15.5,7.6,23.2,7.6c8.8-0.1,20.5-3.7,21.1-15.1c0.6-10.6-5.3-15-23.1-18.9
		c-14.3-3.1-19.4-7.7-19.7-17.4c-0.2-9,8.5-15.4,18.5-16c6.2-0.3,13.3,0.2,21.5,5.1"/>
	<g>
		<g>
			<path class="st8" d="M316.3,40.6v35.2c0,18.8-14.2,27.4-27.5,27.4c-13.3,0-27.6-8.6-27.6-27.4V40.6c0-1.2-1-2.1-2.1-2.1H257v37.4
				c0,21.7,16.5,31.6,31.8,31.6c15.8,0,31.7-10.9,31.7-31.6V38.4h-2.1C317.3,38.4,316.3,39.4,316.3,40.6z"/>
			<path class="st8" d="M359.7,38.2h-24.3v2.1c0,1.2,1,2.2,2.2,2.2h22.1c19.3,0,28.1,15.8,28.1,30.6c0,8.1-2.5,15.6-7.1,21.1
				c-5.1,6.2-12.3,9.4-21,9.4h-22.1c-1.2,0-2.1,1-2.1,2.1v2.1h24.3c10,0,18.4-3.8,24.3-11c5.2-6.3,8-14.8,8-23.8
				C392.1,56.2,381.9,38.2,359.7,38.2z"/>
			<path class="st8" d="M490.8,70.4c-0.6-22.5-18.7-34.6-35.4-34.6c-15.9,0-33.4,10.8-34.2,34.6c-0.3,10.1,3.4,19.5,10.2,26.5
				c6.5,6.7,15.5,10.5,24.6,10.5c9.2,0,18.2-3.9,24.7-10.6C487.5,89.8,491.1,80.4,490.8,70.4z M455.4,40c11.7,0,30.6,8.3,31.2,30.5
				c0.3,8.9-2.9,17.2-8.9,23.4c-5.7,5.9-13.6,9.3-21.7,9.3c-8,0-15.9-3.4-21.6-9.2c-6-6.2-9.2-14.5-9-23.4v0
				C426.2,46.4,444.6,40,455.4,40z"/>
			<path class="st8" d="M406.5,38.4h-2.2V106c0,1.2,1,2.1,2.1,2.1h2.1V40.5C408.6,39.4,407.7,38.4,406.5,38.4z"/>
			<path class="st8" d="M192.3,38.2l-0.5,0.1v2c0,1.1,0.9,2.1,2.1,2.1H217c0.2,0,0.3,0.2,0.3,0.3v62.1c0,0.8,0.6,1.4,1.4,1.4h1.3
				c0.8,0,1.4-0.6,1.4-1.4V42.6c0-0.2,0.1-0.3,0.3-0.3h23.2c1.1,0,2.1-0.9,2.1-2.1v-1.5l-0.1-0.5H192.3z"/>
			<path class="st8" d="M173.8,73.9c-3-1.2-7.1-2.4-12.1-3.6c-4.6-1.1-8.3-2.2-11-3.3c-2.7-1-4.9-2.5-6.8-4.5
				c-1.8-1.9-2.7-4.5-2.7-7.8c0-4.1,1.7-7.6,5-10.3c3.4-2.7,8.4-4.1,15-4.1c3.2,0,6.4,0.5,9.7,1.5c2.4,0.7,4.6,1.7,6.7,3
				c0.7,0.4,1.6,0.6,2.4,0.3c0.8-0.2,1.4-0.7,1.8-1.4l0.3-0.5l-0.3-0.2c-2.6-2-5.8-3.6-9.5-4.7c-3.7-1.1-7.5-1.7-11.3-1.7
				c-5.3,0-9.8,0.8-13.4,2.5c-3.6,1.6-6.3,3.9-8.1,6.6c-1.8,2.8-2.6,5.8-2.6,9.1c0,4.2,1.1,7.6,3.3,10.1c2.1,2.5,4.8,4.4,7.9,5.6
				c3,1.2,7.1,2.4,12.1,3.7c4.6,1.1,8.4,2.2,11,3.2c2.6,1,4.9,2.5,6.7,4.4c1.8,1.9,2.7,4.5,2.7,7.7c0,4.1-1.7,7.6-5.1,10.2
				c-3.4,2.7-8.6,4-15.4,4c-4.6,0-9-0.8-13.1-2.5c-3.1-1.3-5.8-2.9-7.9-4.7c-0.5-0.5-1.2-0.7-2-0.6c-0.7,0.1-1.4,0.5-1.9,1.1
				l-0.4,0.6l0.2,0.3c2.5,2.9,6,5.2,10.6,7c4.5,1.8,9.4,2.7,14.5,2.7c5.4,0,10-0.8,13.6-2.4c3.7-1.6,6.5-3.8,8.3-6.6
				s2.7-5.8,2.7-9.1c0-4.1-1.1-7.5-3.2-9.9C179.6,76.9,176.9,75,173.8,73.9z"/>
		</g>
		<g>
			<g>
				<path class="st9" d="M78.5,50.9l-38.1,38h25.1l38.1-38H78.5z"/>
			</g>
			<linearGradient id="SVGID_1_" gradientUnits="userSpaceOnUse" x1="36.0748" y1="26.996" x2="101.1844" y2="103.29">
				<stop  offset="0" style="stop-color:#37C4DB"/>
				<stop  offset="0.1089" style="stop-color:#37C4DB"/>
				<stop  offset="0.2041" style="stop-color:#4AA0C7"/>
				<stop  offset="0.4888" style="stop-color:#82368C"/>
				<stop  offset="0.5227" style="stop-color:#B8207D"/>
				<stop  offset="0.558" style="stop-color:#EB0B6F"/>
				<stop  offset="0.5754" style="stop-color:#FF036A"/>
				<stop  offset="0.6787" style="stop-color:#FF294D"/>
				<stop  offset="0.8251" style="stop-color:#FF5A29"/>
				<stop  offset="0.9369" style="stop-color:#FF7812"/>
				<stop  offset="1" style="stop-color:#FF830A"/>
			</linearGradient>
			<path class="st10" d="M92.2,37.1c0.4-0.4,0.4-1,0-1.4c-14.5-13.8-37.5-13.5-51.7,0.7c-14.6,14.6-14.6,38-0.1,52.5l38.1-38
				L92.2,37.1z"/>
			<linearGradient id="SVGID_2_" gradientUnits="userSpaceOnUse" x1="35.7663" y1="28.3718" x2="100.8759" y2="104.6658">
				<stop  offset="6.424581e-02" style="stop-color:#37C4DB"/>
				<stop  offset="0.1641" style="stop-color:#47A6CA"/>
				<stop  offset="0.3806" style="stop-color:#70589F"/>
				<stop  offset="0.4721" style="stop-color:#82368C"/>
				<stop  offset="0.5038" style="stop-color:#B8207D"/>
				<stop  offset="0.5368" style="stop-color:#EB0B6F"/>
				<stop  offset="0.5531" style="stop-color:#FF036A"/>
				<stop  offset="0.6618" style="stop-color:#FF294D"/>
				<stop  offset="0.8159" style="stop-color:#FF5A29"/>
				<stop  offset="0.9336" style="stop-color:#FF7812"/>
				<stop  offset="1" style="stop-color:#FF830A"/>
			</linearGradient>
			<path class="st11" d="M103.6,50.9l-38.1,38l-13.6,13.7c-0.5,0.5-0.5,1.2,0,1.7c14.5,13.6,37.4,13.3,51.7-0.8
				C118,89,118,65.5,103.6,50.9z"/>
		</g>
	</g>
</g>
</svg>
